<mxfile host="65bd71144e">
    <diagram id="MZW0JtyVuGxLJxd56s2n" name="Page-1">
        <mxGraphModel dx="1720" dy="1150" grid="1" gridSize="10" guides="1" tooltips="1" connect="1" arrows="1" fold="1" page="0" pageScale="1" pageWidth="850" pageHeight="1100" math="0" shadow="0">
            <root>
                <mxCell id="0"/>
                <mxCell id="1" parent="0"/>
                <mxCell id="6" value="" style="edgeStyle=none;html=1;fontSize=18;" edge="1" parent="1" source="2" target="5">
                    <mxGeometry relative="1" as="geometry"/>
                </mxCell>
                <mxCell id="2" value="&lt;font size=&quot;3&quot;&gt;Start&lt;/font&gt;" style="strokeWidth=2;html=1;shape=mxgraph.flowchart.terminator;whiteSpace=wrap;" vertex="1" parent="1">
                    <mxGeometry x="-120" y="-160" width="160" height="80" as="geometry"/>
                </mxCell>
                <mxCell id="3" value="&lt;font size=&quot;3&quot;&gt;End&lt;/font&gt;" style="strokeWidth=2;html=1;shape=mxgraph.flowchart.terminator;whiteSpace=wrap;" vertex="1" parent="1">
                    <mxGeometry x="-120" y="80" width="160" height="80" as="geometry"/>
                </mxCell>
                <mxCell id="7" value="" style="edgeStyle=none;html=1;fontSize=16;" edge="1" parent="1" source="5" target="3">
                    <mxGeometry relative="1" as="geometry"/>
                </mxCell>
                <mxCell id="5" value="&lt;font style=&quot;font-size: 16px;&quot;&gt;main()&lt;/font&gt;" style="shape=process;whiteSpace=wrap;html=1;backgroundOutline=1;strokeWidth=2;" vertex="1" parent="1">
                    <mxGeometry x="-120" y="-40" width="160" height="80" as="geometry"/>
                </mxCell>
                <mxCell id="11" value="" style="edgeStyle=none;html=1;fontSize=16;" edge="1" parent="1" source="8" target="9">
                    <mxGeometry relative="1" as="geometry"/>
                </mxCell>
                <mxCell id="8" value="&lt;font size=&quot;3&quot;&gt;main()&lt;/font&gt;" style="strokeWidth=2;html=1;shape=mxgraph.flowchart.terminator;whiteSpace=wrap;" vertex="1" parent="1">
                    <mxGeometry x="400" y="-160" width="160" height="80" as="geometry"/>
                </mxCell>
                <mxCell id="12" value="" style="edgeStyle=none;html=1;fontSize=16;" edge="1" parent="1" source="9" target="10">
                    <mxGeometry relative="1" as="geometry"/>
                </mxCell>
                <mxCell id="9" value="&quot;How many employee records do you want to create : &quot;&lt;br&gt;num_emps" style="html=1;strokeWidth=2;shape=manualInput;whiteSpace=wrap;rounded=1;size=26;arcSize=11;fontSize=16;" vertex="1" parent="1">
                    <mxGeometry x="360" y="-40" width="240" height="120" as="geometry"/>
                </mxCell>
                <mxCell id="16" value="" style="edgeStyle=none;html=1;fontSize=16;" edge="1" parent="1" source="10" target="15">
                    <mxGeometry relative="1" as="geometry"/>
                </mxCell>
                <mxCell id="10" value="open file &quot;employee.txt&quot;" style="rounded=1;whiteSpace=wrap;html=1;absoluteArcSize=1;arcSize=14;strokeWidth=2;fontSize=16;" vertex="1" parent="1">
                    <mxGeometry x="400" y="120" width="160" height="80" as="geometry"/>
                </mxCell>
                <mxCell id="19" value="" style="edgeStyle=none;html=1;fontSize=16;" edge="1" parent="1" source="13" target="18">
                    <mxGeometry relative="1" as="geometry"/>
                </mxCell>
                <mxCell id="35" style="edgeStyle=none;html=1;fontSize=16;entryX=1;entryY=0.5;entryDx=0;entryDy=0;" edge="1" parent="1" source="13" target="36">
                    <mxGeometry relative="1" as="geometry">
                        <mxPoint x="280" y="380" as="targetPoint"/>
                    </mxGeometry>
                </mxCell>
                <mxCell id="13" value="count in range&lt;br&gt;(1, num_emps + 1)" style="strokeWidth=2;html=1;shape=mxgraph.flowchart.decision;whiteSpace=wrap;fontSize=16;" vertex="1" parent="1">
                    <mxGeometry x="360" y="320" width="240" height="120" as="geometry"/>
                </mxCell>
                <mxCell id="17" value="" style="edgeStyle=none;html=1;fontSize=16;" edge="1" parent="1" source="15" target="13">
                    <mxGeometry relative="1" as="geometry"/>
                </mxCell>
                <mxCell id="15" value="" style="strokeWidth=2;html=1;shape=mxgraph.flowchart.start_2;whiteSpace=wrap;fontSize=16;" vertex="1" parent="1">
                    <mxGeometry x="460" y="240" width="40" height="40" as="geometry"/>
                </mxCell>
                <mxCell id="25" value="" style="edgeStyle=none;html=1;fontSize=16;" edge="1" parent="1" source="18" target="21">
                    <mxGeometry relative="1" as="geometry"/>
                </mxCell>
                <mxCell id="18" value="&quot;Enter data for employee&quot;,&lt;br&gt;count,sep=&quot;&quot;" style="strokeWidth=2;html=1;shape=mxgraph.flowchart.display;whiteSpace=wrap;fontSize=16;" vertex="1" parent="1">
                    <mxGeometry x="400" y="520" width="160" height="80" as="geometry"/>
                </mxCell>
                <mxCell id="24" value="" style="edgeStyle=none;html=1;fontSize=16;" edge="1" parent="1" source="20" target="22">
                    <mxGeometry relative="1" as="geometry"/>
                </mxCell>
                <mxCell id="20" value="&quot;ID number : &quot;&lt;br&gt;id_num" style="html=1;strokeWidth=2;shape=manualInput;whiteSpace=wrap;rounded=1;size=26;arcSize=11;fontSize=16;" vertex="1" parent="1">
                    <mxGeometry x="400" y="760" width="160" height="80" as="geometry"/>
                </mxCell>
                <mxCell id="23" value="" style="edgeStyle=none;html=1;fontSize=16;" edge="1" parent="1" source="21" target="20">
                    <mxGeometry relative="1" as="geometry"/>
                </mxCell>
                <mxCell id="21" value="&quot;Name : &quot;&lt;br&gt;name" style="html=1;strokeWidth=2;shape=manualInput;whiteSpace=wrap;rounded=1;size=26;arcSize=11;fontSize=16;" vertex="1" parent="1">
                    <mxGeometry x="400" y="640" width="160" height="80" as="geometry"/>
                </mxCell>
                <mxCell id="29" value="" style="edgeStyle=none;html=1;fontSize=16;" edge="1" parent="1" source="22" target="26">
                    <mxGeometry relative="1" as="geometry"/>
                </mxCell>
                <mxCell id="22" value="&quot;Department :&quot;&lt;br&gt;dept" style="html=1;strokeWidth=2;shape=manualInput;whiteSpace=wrap;rounded=1;size=26;arcSize=11;fontSize=16;" vertex="1" parent="1">
                    <mxGeometry x="400" y="880" width="160" height="80" as="geometry"/>
                </mxCell>
                <mxCell id="30" value="" style="edgeStyle=none;html=1;fontSize=16;" edge="1" parent="1" source="26" target="27">
                    <mxGeometry relative="1" as="geometry"/>
                </mxCell>
                <mxCell id="26" value="write_file.write&lt;br&gt;&amp;nbsp;&quot;name&quot;" style="rounded=1;whiteSpace=wrap;html=1;absoluteArcSize=1;arcSize=14;strokeWidth=2;fontSize=16;" vertex="1" parent="1">
                    <mxGeometry x="400" y="1000" width="160" height="80" as="geometry"/>
                </mxCell>
                <mxCell id="31" value="" style="edgeStyle=none;html=1;fontSize=16;" edge="1" parent="1" source="27" target="28">
                    <mxGeometry relative="1" as="geometry"/>
                </mxCell>
                <mxCell id="27" value="write_file.write &lt;br&gt;&quot;id_num&quot;" style="rounded=1;whiteSpace=wrap;html=1;absoluteArcSize=1;arcSize=14;strokeWidth=2;fontSize=16;" vertex="1" parent="1">
                    <mxGeometry x="400" y="1120" width="160" height="80" as="geometry"/>
                </mxCell>
                <mxCell id="33" value="" style="edgeStyle=none;html=1;fontSize=16;" edge="1" parent="1" source="28" target="32">
                    <mxGeometry relative="1" as="geometry"/>
                </mxCell>
                <mxCell id="28" value="write_file.write&lt;br&gt;&amp;nbsp;&quot;dept&quot;" style="rounded=1;whiteSpace=wrap;html=1;absoluteArcSize=1;arcSize=14;strokeWidth=2;fontSize=16;" vertex="1" parent="1">
                    <mxGeometry x="400" y="1240" width="160" height="80" as="geometry"/>
                </mxCell>
                <mxCell id="34" style="edgeStyle=none;html=1;entryX=1;entryY=0.5;entryDx=0;entryDy=0;entryPerimeter=0;fontSize=16;" edge="1" parent="1" source="32" target="15">
                    <mxGeometry relative="1" as="geometry">
                        <Array as="points">
                            <mxPoint x="640" y="1400"/>
                            <mxPoint x="640" y="260"/>
                        </Array>
                    </mxGeometry>
                </mxCell>
                <mxCell id="32" value="&quot;&quot;" style="strokeWidth=2;html=1;shape=mxgraph.flowchart.display;whiteSpace=wrap;fontSize=16;" vertex="1" parent="1">
                    <mxGeometry x="400" y="1360" width="160" height="80" as="geometry"/>
                </mxCell>
                <mxCell id="38" value="" style="edgeStyle=none;html=1;fontSize=16;" edge="1" parent="1" source="36" target="37">
                    <mxGeometry relative="1" as="geometry"/>
                </mxCell>
                <mxCell id="36" value="close file&lt;br&gt;&quot;employee.txt&quot;" style="rounded=1;whiteSpace=wrap;html=1;absoluteArcSize=1;arcSize=14;strokeWidth=2;fontSize=16;" vertex="1" parent="1">
                    <mxGeometry x="120" y="340" width="160" height="80" as="geometry"/>
                </mxCell>
                <mxCell id="39" style="edgeStyle=none;html=1;fontSize=16;entryX=0.5;entryY=0;entryDx=0;entryDy=0;entryPerimeter=0;" edge="1" parent="1" source="37" target="40">
                    <mxGeometry relative="1" as="geometry">
                        <mxPoint x="480" y="1520" as="targetPoint"/>
                        <Array as="points">
                            <mxPoint x="200" y="1480"/>
                            <mxPoint x="480" y="1480"/>
                        </Array>
                    </mxGeometry>
                </mxCell>
                <mxCell id="37" value="&quot;Employee records written to employees.txt&quot;" style="strokeWidth=2;html=1;shape=mxgraph.flowchart.display;whiteSpace=wrap;fontSize=16;" vertex="1" parent="1">
                    <mxGeometry x="120" y="480" width="160" height="80" as="geometry"/>
                </mxCell>
                <mxCell id="40" value="&lt;font size=&quot;3&quot;&gt;retrun&lt;/font&gt;" style="strokeWidth=2;html=1;shape=mxgraph.flowchart.terminator;whiteSpace=wrap;" vertex="1" parent="1">
                    <mxGeometry x="400" y="1520" width="160" height="80" as="geometry"/>
                </mxCell>
                <mxCell id="41" value="True" style="text;html=1;strokeColor=#006EAF;fillColor=#1ba1e2;align=center;verticalAlign=middle;whiteSpace=wrap;rounded=0;fontSize=16;fontColor=#ffffff;" vertex="1" parent="1">
                    <mxGeometry x="490" y="440" width="60" height="30" as="geometry"/>
                </mxCell>
                <mxCell id="42" value="False" style="text;html=1;strokeColor=#6F0000;fillColor=#a20025;align=center;verticalAlign=middle;whiteSpace=wrap;rounded=0;fontSize=16;fontColor=#ffffff;" vertex="1" parent="1">
                    <mxGeometry x="300" y="340" width="60" height="30" as="geometry"/>
                </mxCell>
            </root>
        </mxGraphModel>
    </diagram>
</mxfile>